<!-- Generated by IcoMoon.io -->
<svg version="1.1" xmlns="http://www.w3.org/2000/svg" width="1024" height="1024" viewBox="0 0 1024 1024">
<title></title>
<g id="icomoon-ignore">
</g>
<path fill="#ff3e00" d="M883.622 135.538c-95.118-136.157-282.966-176.497-418.773-89.937l-238.26 151.99c-64.046 40.64-109.538 105.619-123.615 181.621l-0.259 1.687c-2.892 15.326-4.545 32.955-4.545 50.971 0 48.921 12.194 94.994 33.707 135.345l-0.755-1.553c-19.428 29.189-33.668 63.59-40.489 100.589l-0.259 1.688c-2.864 15.346-4.501 33.002-4.501 51.041 0 63.605 20.361 122.454 54.921 170.384l-0.591-0.862c95.118 136.098 282.966 176.439 418.773 89.937l238.667-152.048c63.954-40.683 109.362-105.654 123.384-181.624l0.258-1.684c2.908-15.372 4.571-33.054 4.571-51.126 0-48.95-12.204-95.051-33.734-135.423l0.755 1.553c19.428-29.189 33.668-63.59 40.489-100.589l0.259-1.688c2.864-15.345 4.503-32.999 4.503-51.035 0-63.587-20.362-122.419-54.923-170.328l0.589 0.86z"></path>
<path fill="#fff" d="M441.564 901.543c-14.298 3.868-30.715 6.089-47.65 6.089-64.239 0-121.013-31.968-155.278-80.864l-0.405-0.608c-20.419-28.291-32.66-63.663-32.66-101.893 0-10.792 0.975-21.356 2.842-31.609l-0.162 1.071c1.671-8.74 3.683-16.225 6.176-23.487l-0.355 1.192 4.482-13.68 12.224 8.965c26.619 19.753 57.573 35.636 90.958 45.987l2.18 0.582 8.848 2.678-0.815 8.848c-0.128 1.384-0.201 2.992-0.201 4.618 0 11.558 3.673 22.257 9.915 30.995l-0.111-0.162c10.424 14.914 27.515 24.548 46.854 24.548 5.112 0 10.068-0.674 14.783-1.936l-0.399 0.090c5.571-1.496 10.452-3.688 14.877-6.528l-0.208 0.125 238.667-151.99c11.59-7.383 19.818-19.162 22.365-32.933l0.047-0.306c0.538-2.822 0.847-6.067 0.847-9.385 0-11.492-3.701-22.12-9.975-30.757l0.105 0.151c-10.464-14.902-27.572-24.523-46.929-24.523-5.086 0-10.015 0.664-14.709 1.911l0.399-0.090c-5.549 1.511-10.41 3.701-14.822 6.53l0.211-0.127-91.043 58.211c-13.926 8.986-30.034 16.276-47.202 21.016l-1.23 0.29c-14.276 3.855-30.669 6.071-47.578 6.071-64.356 0-121.218-32.085-155.464-81.131l-0.406-0.614c-20.432-28.321-32.68-63.728-32.68-101.995 0-10.839 0.982-21.448 2.864-31.744l-0.163 1.074c8.577-46.687 35.88-85.747 73.67-109.799l0.667-0.396 238.667-152.048c13.942-8.979 30.074-16.251 47.265-20.961l1.225-0.287c14.255-3.845 30.622-6.054 47.505-6.054 64.34 0 121.188 32.077 155.422 81.113l0.406 0.616c20.435 28.298 32.684 63.682 32.684 101.928 0 10.842-0.984 21.454-2.868 31.751l0.163-1.074c-1.671 8.74-3.683 16.225-6.176 23.487l0.355-1.192-4.482 13.68-12.224-8.965c-26.611-19.777-57.57-35.663-90.967-45.991l-2.171-0.578-8.848-2.678 0.815-8.848c0.127-1.384 0.199-2.995 0.199-4.622 0-11.575-3.672-22.294-9.915-31.051l0.111 0.164c-10.464-14.902-27.572-24.523-46.929-24.523-5.086 0-10.015 0.664-14.709 1.911l0.399-0.090c-5.572 1.515-10.452 3.727-14.874 6.585l0.205-0.124-238.667 151.99c-11.597 7.349-19.831 19.115-22.365 32.876l-0.047 0.304c-0.538 2.822-0.847 6.067-0.847 9.385 0 11.492 3.701 22.12 9.975 30.757l-0.105-0.151c10.464 14.786 27.496 24.321 46.757 24.321 5.127 0 10.095-0.675 14.822-1.943l-0.399 0.092c5.572-1.515 10.452-3.727 14.874-6.585l-0.205 0.124 90.985-58.211c13.921-9.040 30.037-16.336 47.228-21.026l1.204-0.279c14.305-3.873 30.731-6.098 47.675-6.098 64.235 0 121.001 31.973 155.253 80.872l0.405 0.61c20.456 28.307 32.718 63.708 32.718 101.975 0 10.909-0.997 21.585-2.903 31.942l0.164-1.077c-8.576 46.705-35.877 85.783-73.671 109.857l-0.665 0.396-238.667 151.99c-13.943 8.975-30.071 16.263-47.252 21.013l-1.238 0.293z"></path>
</svg>
