<!-- Generated by IcoMoon.io -->
<svg version="1.1" xmlns="http://www.w3.org/2000/svg" width="1024" height="1024" viewBox="0 0 1024 1024">
<title></title>
<g id="icomoon-ignore">
</g>
<path fill="#fff" d="M454.273 14.525c-38.485 19.366-119.612 57.070-163.562 87.148s-38.486 58.099-57.728 77.466c-19.243 19.367-76.971 67.783-115.457 96.832s-28.864 106.515-38.485 135.565c-9.621 29.049-28.864 96.831-38.486 125.881s19.243 67.783 38.486 106.515c19.243 38.733 67.349 145.248 86.592 183.98s76.971 19.367 125.078 58.099c48.107 38.733 115.456 87.153 163.562 116.202s67.35 29.049 115.457 0c48.107-29.049 115.456-77.468 163.562-116.202s105.834-19.366 125.078-58.099c19.243-38.732 67.349-145.248 86.592-183.98 19.241-38.732 48.106-77.466 38.483-106.515s-28.862-96.831-38.483-125.881c-9.62-29.049 0-106.515-38.485-135.565s-83.159-66.037-115.457-96.832c-32.297-30.795-19.243-48.416-57.728-77.466s-125.077-67.782-163.562-87.148c-38.486-19.366-76.971-19.366-115.457 0z"></path>
<path fill="#bf4722" d="M318.383 182.385l180.073 122.917c4.064 2.707 8.812 4.188 13.684 4.272 4.879-0.036 9.639-1.522 13.683-4.272l180.21-123.331c7.002-5.013 10.863-13.371 10.161-21.994s-5.864-16.236-13.583-20.034l-180.073-89.156c-6.831-3.315-14.789-3.315-21.62 0l-179.526 89.156c-7.859 3.819-13.088 11.579-13.71 20.343s3.459 17.194 10.699 22.099zM573.305 343.887c0.015 8.152 4.005 15.775 10.673 20.393l144.36 98.665c9.241 6.371 21.606 5.575 29.966-1.929l121.098-108.311c5.397-4.821 8.394-11.804 8.182-19.066s-3.609-14.057-9.277-18.552l-115.625-92.464c-8.404-6.677-20.129-7.121-29.009-1.102l-149.697 102.386c-6.551 4.536-10.526 11.976-10.673 19.98zM214.253 478.102c5.833 5.241 8.833 12.972 8.073 20.809-0.759 7.881-5.31 14.885-12.178 18.74l-86.205 51.675c-8.739 5.224-19.772 4.469-27.73-1.893s-11.189-17.013-8.12-26.769l31.882-100.318c2.501-7.949 8.842-14.073 16.831-16.26 7.985-2.323 16.594-0.287 22.716 5.374l54.734 48.643zM681.815 488.575l-155.854-106.656c-8.283-5.574-19.084-5.574-27.367 0l-155.854 106.656c-6.199 4.291-10.126 11.186-10.673 18.741-0.404 7.608 2.611 14.995 8.211 20.119l155.717 139.315c4.491 4.006 10.284 6.212 16.282 6.201 5.997-0.002 11.786-2.206 16.283-6.201l155.717-139.315c5.616-5.102 8.593-12.52 8.073-20.119-0.434-7.555-4.327-14.478-10.535-18.741zM266.112 461.016l-120.961-108.311c-5.443-4.944-8.446-12.052-8.211-19.429 0.131-7.273 3.497-14.1 9.168-18.602l115.625-93.015c8.463-6.658 20.212-7.102 29.146-1.102l149.56 102.385c6.941 4.552 11.128 12.328 11.128 20.67s-4.187 16.117-11.128 20.669l-144.223 98.665c-9.298 6.343-21.679 5.55-30.104-1.929zM887.202 616.591l-123.151-73.723c-9.146-5.511-20.788-4.395-28.734 2.756l-150.518 134.354c-6.349 5.671-9.331 14.246-7.881 22.666s7.123 15.486 14.996 18.673l208.808 84.609c2.864 1.189 5.934 1.797 9.032 1.791 9.691 0.031 18.488-5.696 22.441-14.606l64.722-144.965c5.268-11.472 1.072-25.097-9.715-31.555zM904.307 440.346l31.882 100.318h-0.274c2.357 7.503 1.018 15.691-3.606 22.035s-11.978 10.086-19.793 10.072c-4.385 0.015-8.689-1.177-12.451-3.445l-86.343-51.675c-6.726-3.936-11.121-10.933-11.767-18.74-0.806-7.842 2.201-15.593 8.073-20.809l54.734-48.781c6.183-5.541 14.728-7.563 22.715-5.374 7.985 2.282 14.303 8.437 16.832 16.398zM447.555 702.578c1.472-8.386-1.48-16.94-7.799-22.6l-150.518-134.354c-7.948-7.151-19.589-8.267-28.734-2.756l-123.151 73.723c-10.663 6.486-14.882 19.94-9.852 31.418l64.858 144.964c5.374 12.088 19.267 17.745 31.473 12.815l208.671-84.609c7.876-3.159 13.57-10.195 15.051-18.601zM521.445 743.917l167.484 67.797c8.189 3.505 13.847 11.207 14.779 20.119 1.060 9.022-2.947 17.891-10.399 23.012l-167.621 116.445c-4.018 2.821-8.786 4.356-13.684 4.405-4.893-0.077-9.654-1.613-13.683-4.405l-167.485-116.445c-7.479-5.109-11.535-13.967-10.536-23.012 1.119-9.005 6.98-16.699 15.326-20.119l167.484-67.797c5.889-2.349 12.447-2.349 18.336 0z"></path>
</svg>
